<?xml version="1.0" encoding="UTF-8"?>
<svg width="56px" height="56px" viewBox="0 0 56 56" version="1.1" xmlns="http://www.w3.org/2000/svg" xmlns:xlink="http://www.w3.org/1999/xlink">
    <!-- Generator: sketchtool 53.2 (72643) - https://sketchapp.com -->
    <title>52B9E313-8898-4F3C-9570-9AEE8F13BF7E</title>
    <desc>Created with sketchtool.</desc>
    <g id="Page-1" stroke="none" stroke-width="1" fill="none" fill-rule="evenodd">
        <g id="sft_design_home_v01" transform="translate(-293.000000, -1325.000000)">
            <g id="Regions" transform="translate(29.000000, 860.000000)">
                <g id="1" transform="translate(106.000000, 144.000000)">
                    <g id="Logo_line" transform="translate(158.000000, 321.000000)">
                        <g id="Group-3">
                            <path d="M28.3395205,0.363144988 L27.7214791,0.363144988 C27.6801824,0.384275157 27.6410499,0.396131247 27.5818218,0.402636306 C26.8727888,0.481584997 26.2443097,0.783212894 25.65242,1.30899565 C25.2609563,1.65651087 24.7775079,1.82448058 24.2313145,1.81781391 C23.8851215,1.81361724 23.5733878,1.72121312 23.187368,1.53840857 C22.3127941,1.12456728 21.4316609,1.08202311 20.5326959,1.41314582 C19.8461529,1.66602052 19.3013426,2.10169662 18.8980781,2.71844345 C18.5254442,3.28879451 18.018441,3.63757268 17.3851833,3.71494598 C17.0988336,3.74994895 16.8179112,3.72915936 16.4167024,3.66375996 C14.8413937,3.40695814 13.3161465,4.26569191 12.732592,5.74018267 C12.7180179,5.77702861 12.7062574,5.80986092 12.6812344,5.88229067 C12.6807603,5.88366283 12.6807603,5.88366283 12.6802853,5.88503785 C12.6441409,5.9896621 12.6266275,6.03776678 12.6003986,6.10004743 C12.264641,6.89698238 11.6507537,7.36181633 10.7957506,7.45394324 C10.7394707,7.45986662 10.7394707,7.45986662 10.684837,7.46534729 C10.6813636,7.46569577 10.6813636,7.46569577 10.6778971,7.46604362 C10.557226,7.4781539 10.4996176,7.48460834 10.4339495,7.49413521 C9.09151096,7.68797324 8.1842344,8.40815999 7.66962575,9.67732753 C7.56877694,9.92603562 7.528429,10.1451409 7.4694551,10.6613414 C7.46773798,10.6763716 7.46773798,10.6763716 7.46601344,10.6914494 C7.45734193,10.767003 7.45734193,10.767003 7.44817404,10.843693 C7.35169812,11.636887 6.91148425,12.2195204 6.17289803,12.5539925 C6.09819939,12.5877895 6.04067696,12.6088278 5.9159539,12.6509794 C5.91476431,12.6513815 5.91476431,12.6513815 5.91357707,12.6517827 C5.85206546,12.6725977 5.8281152,12.6809083 5.79772936,12.6922511 C4.29985099,13.2512717 3.40709449,14.7782979 3.65638009,16.3545693 C3.66224371,16.3917198 3.66756529,16.4209994 3.68147927,16.4943986 C3.68237169,16.4991011 3.68237169,16.4991011 3.68326896,16.5038313 C3.7102802,16.6462568 3.72216053,16.7204621 3.72957949,16.813993 C3.79743047,17.6755654 3.45065319,18.3670318 2.72156834,18.8612037 C1.26053093,19.8513134 0.782909535,21.5916791 1.53887756,23.1665512 C1.98567675,24.0972739 1.86651511,24.9619614 1.18610592,25.7462988 C0.0735085689,27.0283935 0.0709718353,28.8517283 1.18047734,30.1346327 C1.86768465,30.9292603 1.98442603,31.7983891 1.52946535,32.7418691 C0.787879686,34.2800708 1.2669769,36.0416753 2.68820347,37.0039158 C3.53348121,37.5761817 3.86537438,38.3708918 3.68222946,39.3784856 C3.36570088,41.1194289 4.25571006,42.6427453 5.93417665,43.2409369 C6.05206386,43.2830112 6.1182252,43.3082923 6.19397306,43.3423126 C6.8313383,43.6294493 7.24596147,44.1302606 7.41265292,44.8091112 C7.4453787,44.942494 7.46143431,45.0653551 7.47767505,45.2608489 C7.47992558,45.2881741 7.47992558,45.2881741 7.4820961,45.3149819 C7.48644411,45.3686328 7.48644411,45.3686328 7.49095161,45.4202997 C7.52907158,45.84668 7.64456844,46.2391029 7.83936517,46.5952265 C8.44888255,47.710351 9.36800189,48.3128493 10.6212364,48.4104393 C11.5786795,48.4850022 12.257294,48.9486109 12.6109162,49.8113205 C12.6317287,49.8620089 12.644799,49.9002391 12.6708251,49.9816797 C12.671367,49.9833756 12.671367,49.9833756 12.6719059,49.9850618 C12.6900407,50.0415701 12.6964777,50.0607262 12.70587,50.085228 C12.9318902,50.673887 13.2728856,51.1509616 13.7381143,51.5168489 C14.5682514,52.1702959 15.4913512,52.3986331 16.5221543,52.2026513 C17.5380014,52.0095931 18.3546363,52.3384264 18.9107844,53.1903865 C18.9495448,53.2497228 18.9847836,53.2995576 19.0198257,53.344016 C19.7048175,54.2142074 20.5776113,54.6579313 21.6711593,54.6847485 C22.2193488,54.6980062 22.745312,54.5743071 23.2606828,54.3161859 C23.7557369,54.0685224 24.2635939,53.9995173 24.7797288,54.1270444 C25.1463136,54.2176776 25.4483604,54.3998417 25.8111741,54.707541 C27.0919419,55.7937687 28.9266697,55.7902096 30.1916467,54.696121 C30.9870765,54.008456 31.8567213,53.8895305 32.8018304,54.3436391 C34.3488019,55.0871712 36.1117804,54.61249 37.0744413,53.1940992 C37.6583728,52.3338848 38.4757658,52.0016187 39.4921448,52.2086305 C39.9355383,52.2989477 40.3653957,52.2994165 40.7792446,52.2061004 C42.0475129,51.9203497 42.8884278,51.1877675 43.3147891,49.9860069 C43.6589452,49.0155596 44.3503236,48.4779697 45.3630406,48.413987 C47.0530026,48.3078563 48.3870011,46.9942041 48.5126526,45.3142806 C48.5312325,45.0645618 48.5603372,44.8716257 48.6162102,44.6854065 C48.8333274,43.9618019 49.338835,43.490497 50.1058901,43.2219485 C51.7222203,42.6561953 52.6384371,41.0675003 52.3153255,39.3953843 C52.1207359,38.3891584 52.4473455,37.5845892 53.291964,37.0101785 C54.7321148,36.0310161 55.2048463,34.2865236 54.4535708,32.7242435 C54.0056872,31.7922596 54.1237386,30.9279734 54.8039934,30.1445453 C55.9159486,28.863973 55.9198812,27.036626 54.8121434,25.755478 C54.1103328,24.9437779 53.9950545,24.0569322 54.4793473,23.1138695 C54.6513734,22.7785747 54.7534838,22.4205762 54.7824001,22.0486571 C54.8896789,20.6781372 54.3870206,19.6241121 53.2538896,18.8484007 C52.4480478,18.2967673 52.1293802,17.5103591 52.3034993,16.5424404 C52.353307,16.2656105 52.3765859,16.0879275 52.3808965,15.9131077 C52.4167952,14.453587 51.5192386,13.1626276 50.1194533,12.6733135 C49.1071252,12.3192728 48.5615234,11.6059901 48.5080901,10.5501751 C48.4867971,10.1345271 48.3806258,9.73885621 48.1915159,9.37049113 C47.5901881,8.19845385 46.6380965,7.57093737 45.3107815,7.46542798 C44.3208537,7.38670018 43.6373857,6.86343798 43.3341768,5.93529959 C42.812646,4.33740956 41.1752045,3.34362241 39.4436201,3.68733142 C38.4562253,3.88341846 37.6580434,3.54625823 37.0857014,2.70817829 C36.1051197,1.27198944 34.3482898,0.796741949 32.7891176,1.54671005 C31.8491405,1.99890028 30.9745052,1.88415374 30.2024044,1.19685211 C29.7856315,0.825989694 29.2927409,0.578925828 28.7245383,0.45183989 C28.6566646,0.436673121 28.607293,0.425336824 28.4916862,0.398503742 C28.4660913,0.392549702 28.4660913,0.392549702 28.4405633,0.38660693 C28.3865929,0.374045348 28.3742124,0.371163814 28.3395205,0.363144988 Z M27.5034632,-0.292964036 C27.5039345,-0.293016685 27.5044058,-0.293069253 27.5048772,-0.293121741 C27.5044005,-0.293069376 27.5039265,-0.293016834 27.5034552,-0.292964113 Z" id="Path" stroke="#FFFFFF" stroke-width="0.7"></path>
                            <path d="M16.2019121,32.7222359 C15.9491271,32.8294061 15.7451458,32.9335739 15.5297813,33.0023664 C15.3120617,33.0718117 15.0847907,33.116455 14.8586972,33.15418 C13.7805664,33.3344503 12.6935383,33.347504 11.6083421,33.2625249 C10.8429215,33.2024783 10.0678187,33.1415179 9.34884673,32.6915599 C9.34884673,32.9504131 9.3566972,33.1755879 9.34636075,33.3999795 C9.33759439,33.5925203 9.41766916,33.7286695 9.58671589,33.7986368 C9.8075757,33.889751 10.0311832,33.994441 10.2636879,34.0328186 C10.8396505,34.1279795 11.4192766,34.2171357 12.0009963,34.2573408 C13.1100056,34.3339655 14.2156131,34.2771823 15.3040804,34.0329492 C15.5356692,33.9809958 15.7587533,33.8840075 15.9792206,33.79211 C16.1368841,33.7263198 16.2118561,33.5982639 16.2042673,33.4177324 C16.1947159,33.1896858 16.2019121,32.9609865 16.2019121,32.7222359 L16.2019121,32.7222359 Z M23.899557,46.628772 C24.0574822,47.1784597 24.2309776,47.676455 24.4634822,48.1556531 C24.6615757,48.5635786 24.9761178,48.847103 25.3849963,49.0051823 C26.403071,49.3988793 27.080828,48.868511 27.2420243,48.0022732 C27.3746972,47.2896765 27.1444168,46.6274667 26.7808093,46.0110751 C25.792828,46.0686415 24.8696131,46.3623478 23.899557,46.628772 L23.899557,46.628772 Z M29.0488093,43.9885483 C28.9171832,44.3579655 28.7499682,44.7105436 28.6695009,45.0820494 C28.5581551,45.5959702 28.5480804,46.1160261 28.8791084,46.5821706 C29.1193327,46.9205203 29.4277252,47.1139748 29.8524355,47.1065343 C30.5256131,47.0943944 31.0481925,46.8039515 31.3619495,46.2154946 C31.5661925,45.8326322 31.6987346,45.411131 31.8582299,45.0050331 C31.9062486,44.8828513 31.9372579,44.7541427 31.9817439,44.6097697 C31.0136505,44.3430844 30.0913514,44.0484643 29.0488093,43.9885483 L29.0488093,43.9885483 Z M32.3689028,9.92096783 C32.2973327,9.37571841 32.2461738,8.83529883 32.1503981,8.30284196 C32.0670523,7.83852494 31.8917252,7.39992354 31.6003421,7.01928019 C31.4838935,6.86694452 31.3428467,6.7212662 31.1270897,6.78274872 C30.9147346,6.84331748 30.9080617,7.0446042 30.8948467,7.21965315 C30.8654075,7.60447366 30.8326972,7.99007739 30.8286411,8.37555058 C30.8184355,9.34608671 30.824585,10.3167534 30.8211832,11.28742 C30.8181738,12.2163152 30.8214449,13.1452103 30.804828,14.0739748 C30.7774822,15.6180867 30.7356131,17.1620681 30.7023794,18.70618 C30.7004168,18.7988606 30.7057813,18.8962406 30.7320804,18.9839608 C30.7897813,19.1771543 30.9471832,19.2783198 31.1345477,19.2617417 C31.3111832,19.2460774 31.434828,19.1390378 31.4691084,18.9434946 C31.4903047,18.8217044 31.4887346,18.6945622 31.4857252,18.5700308 C31.4391458,16.7653688 31.3943981,14.9605762 31.3389215,13.1560448 C31.330286,12.8769585 31.4043421,12.6515226 31.5871271,12.4420121 C31.8794262,12.1066648 32.0974075,11.7245855 32.1740804,11.2820681 C32.2520617,10.8310657 32.3046598,10.3757557 32.3689028,9.92096783 L32.3689028,9.92096783 Z M27.9059121,10.2253781 C27.7567533,10.1146834 27.796529,9.96065082 27.796529,9.82463217 C27.7954822,8.91623124 27.800585,8.0078303 27.8001925,7.09942937 C27.7999308,6.8766042 27.7334636,6.75794685 27.6312766,6.78274872 C27.4638,6.82360653 27.4957252,6.97202611 27.4929776,7.09107506 C27.4691645,8.14541538 27.4677252,9.20053893 27.4186598,10.2535739 C27.3953701,10.7479142 27.4898374,11.1343012 27.958772,11.3773594 C28.127557,11.4649492 28.1959869,11.626814 28.1857813,11.8258816 C28.1721738,12.0864317 28.1793701,12.347765 28.1734822,12.6088373 C28.1287346,14.6129585 28.0825477,16.6170797 28.0388467,18.6212009 C28.0362299,18.735159 28.0393701,18.8526415 28.0640991,18.9630751 C28.1047907,19.1439981 28.2447907,19.2520821 28.4193327,19.2634387 C28.5995009,19.2750564 28.7533701,19.1925576 28.8148654,19.0180308 C28.8552953,18.9030284 28.8729589,18.7734061 28.8703421,18.6509632 C28.8466598,17.5236531 28.8146037,16.3966042 28.7875196,15.2692942 C28.7601738,14.1315413 28.7378,12.9936578 28.7080991,11.8560354 C28.7027346,11.6492662 28.7722112,11.4910564 28.9429589,11.3748793 C29.0206785,11.3218816 29.0944729,11.2631403 29.1716692,11.20949 C29.3973701,11.0525855 29.4939308,10.8328932 29.4875196,10.5638583 C29.4601738,9.39490723 29.4323047,8.22582564 29.4039121,7.05687459 C29.4027346,7.00479068 29.4083607,6.94565781 29.3858561,6.90297249 C29.3599495,6.85441305 29.3078748,6.79162517 29.2639121,6.78888392 C29.2215196,6.78627319 29.1475944,6.84579767 29.1360804,6.89044103 C29.1103047,6.98938741 29.1083421,7.0962965 29.1083421,7.19994219 C29.1092579,8.09790023 29.1129215,8.99585828 29.1156692,9.89381632 C29.1161925,10.017173 29.120772,10.141835 28.9871832,10.230469 C28.8348841,10.1332196 28.8734822,9.9880634 28.8732206,9.86261818 C28.8713888,8.96466014 28.8749215,8.0667021 28.8729589,7.16874406 C28.8726972,7.06627319 28.8583047,6.96132214 28.8312206,6.86276737 C28.8212766,6.82660886 28.755071,6.78287925 28.715557,6.78392354 C28.6748654,6.78509837 28.6094449,6.83013333 28.6005477,6.86707506 C28.5762112,6.96680466 28.5680991,7.07240839 28.5678374,7.17566247 C28.5657439,8.07375105 28.5667907,8.97170909 28.566529,9.86979767 C28.566529,9.95307972 28.5724168,10.0384503 28.5563234,10.1191217 C28.5480804,10.1595879 28.4871084,10.2261613 28.4670897,10.2204177 C28.4175009,10.2063198 28.3509028,10.1645483 28.3396505,10.1213408 C28.3166224,10.0324457 28.3212019,9.93545734 28.3214636,9.8417324 C28.323557,8.96466014 28.3276131,8.08745734 28.3291832,7.21051562 C28.329314,7.10660886 28.3306224,6.99969977 28.3072019,6.89997016 C28.2962112,6.85310769 28.2284355,6.79045035 28.1842112,6.78849231 C28.1418187,6.7866648 28.0697252,6.84697249 28.0574262,6.8925296 C28.0306037,6.99121492 28.0255009,7.09799347 28.0257626,7.20137809 C28.0268093,8.09933613 28.0319121,8.99729417 28.0337439,9.89525221 C28.0337439,10.0145622 28.0549402,10.1469259 27.9059121,10.2253781 L27.9059121,10.2253781 Z M25.7547533,15.1031217 C25.7493888,15.1031217 25.7437626,15.1031217 25.7381364,15.1032522 C25.7381364,14.8215552 25.7427159,14.5398583 25.7373514,14.2582918 C25.7200804,13.3509352 25.7043794,12.443448 25.6766411,11.5363524 C25.6683981,11.267448 25.7455944,11.0467114 25.9330897,10.8578256 C26.0140804,10.7765016 26.0886598,10.6887814 26.1628467,10.6010611 C26.3971832,10.3234107 26.5564168,10.0082965 26.5921364,9.64462284 C26.6752206,8.80070676 26.5049963,8.003131 26.0931084,7.26534079 C26.0067533,7.11091655 25.8404542,6.99030117 25.689071,6.88548065 C25.4703047,6.73418928 25.2396318,6.75324755 25.0149776,6.90205874 C24.8069402,7.03977436 24.6597439,7.22422191 24.560828,7.44796084 C24.3138,8.00743869 24.1821738,8.59158788 24.1570523,9.20458555 C24.1320617,9.81445035 24.3194262,10.3380308 24.7540804,10.76149 C25.0219121,11.0224317 25.1144168,11.3186182 25.1044729,11.6888186 C25.0428467,13.9933035 24.9957439,16.2983105 24.9460243,18.6031869 C24.9436692,18.706441 24.9492953,18.8125669 24.9704916,18.9132103 C25.0221738,19.1567907 25.1578561,19.2686601 25.3772766,19.2668326 C25.6011458,19.2648746 25.7667907,19.1253315 25.8051271,18.8882779 C25.823314,18.7761473 25.8187346,18.6595786 25.8166411,18.5450984 C25.7968841,17.3978163 25.7756879,16.2504037 25.7547533,15.1031217 L25.7547533,15.1031217 Z M23.5644729,45.7404737 C23.8342673,45.6834294 24.1098187,45.6309538 24.3824916,45.5662079 C25.0520056,45.4068233 25.7198187,45.2396065 26.3894636,45.080483 C26.530772,45.0470657 26.6062673,44.9871497 26.6026037,44.827765 C26.5846785,44.0150471 26.5878187,43.2014154 26.5561551,42.3894807 C26.5382299,41.9343012 26.3672206,41.5120168 26.1242486,41.1299375 C25.8329963,40.6712336 25.4061925,40.4078117 24.8580991,40.3703478 C24.608585,40.3532476 24.3559308,40.3540308 24.106286,40.371131 C23.3204542,40.4243897 22.7855757,40.8568559 22.6158748,41.5740214 C22.5729589,41.7555972 22.5477065,41.9442219 22.5397252,42.1306275 C22.484772,43.4383385 23.014286,44.5830098 23.5644729,45.7404737 L23.5644729,45.7404737 Z M32.3177439,43.7227767 C32.3571271,43.6708233 32.3826411,43.6491543 32.3931084,43.6216112 C32.6558374,42.9306834 32.9392393,42.2466741 33.1720056,41.545434 C33.3749402,40.9349166 33.404772,40.2982918 33.2857065,39.6608839 C33.1416505,38.8896765 32.6086037,38.412828 31.8204168,38.3593082 C31.570772,38.3423385 31.3190336,38.3435133 31.0688654,38.3522592 C30.4511645,38.3736671 29.9988467,38.6778163 29.6990897,39.2029632 C29.4695944,39.6052755 29.3196505,40.0399608 29.3102299,40.5085855 C29.2947907,41.2899748 29.2894262,42.0714946 29.2810523,42.853145 C29.280529,42.8932196 29.292043,42.9335552 29.3012019,42.9954294 C30.2853888,43.3404364 31.3172019,43.4878117 32.3177439,43.7227767 L32.3177439,43.7227767 Z M46.7909963,29.6294434 C46.817557,30.24218 46.780529,30.8017883 46.8155944,31.3778443 C47.355314,31.3762779 47.8513327,31.393117 48.346828,31.3700121 L48.346828,30.7622359 L47.7766224,30.7622359 L47.7766224,30.3890331 L48.3500991,30.3890331 L48.3500991,29.9801939 C48.1469028,29.9701427 47.9634636,29.9610051 47.772828,29.9516065 L47.772828,29.6477184 C47.9747159,29.6344037 48.1586785,29.6223944 48.3366224,29.6109072 C48.4023047,29.2200821 48.3856879,28.2602499 48.3063981,28.0252848 L42.3791645,28.0252848 C42.2831271,27.8100308 42.1359308,27.668138 41.9023794,27.6595226 C41.6761551,27.6510378 41.531314,27.7972382 41.4104168,27.9699375 C41.0532206,27.5391683 40.7758374,27.5557464 40.4089589,28.0256765 C40.3069028,28.0123618 40.1924168,28.0050517 40.0815944,27.9819469 C39.6703607,27.895793 39.3177439,27.6932009 39.0260991,27.3984503 C38.7992206,27.1689678 38.5975944,26.9144224 38.3865477,26.669145 C38.0182299,26.2412476 37.4618935,26.0836904 36.939314,26.2617417 C36.4083607,26.4426648 36.0561364,26.925779 36.0403047,27.4970051 C36.0379495,27.5783291 36.040043,27.6596531 36.040043,27.7481566 C35.9303981,27.7655179 35.8381551,27.7750471 35.7487907,27.7951497 C35.2314449,27.9119795 34.8930897,28.3373967 34.9034262,28.8537977 C34.9131084,29.3538816 35.2578748,29.7554107 35.7686785,29.8619282 C35.8573888,29.8803338 35.9459682,29.8979562 36.0418748,29.9174061 C36.0418748,30.0299282 36.037557,30.123131 36.0426598,30.2158117 C36.0722299,30.7619748 36.442772,31.2389538 36.9628654,31.4039515 C37.5023234,31.5753455 38.0402112,31.3996438 38.4235757,30.9461613 C38.6586972,30.6677277 38.8999682,30.3917744 39.1633514,30.1404923 C39.4319682,29.8838583 39.7677065,29.7307394 40.1349776,29.6611636 C40.2990523,29.6299655 40.4387907,29.6206974 40.5632206,29.8064503 C40.726772,30.0506834 41.0597626,30.0466368 41.2772206,29.8433921 C41.3265477,29.7973128 41.3669776,29.7417044 41.4130336,29.6888373 C41.4704729,29.7552802 41.5120804,29.8170238 41.5665103,29.8642779 C41.7664355,30.0382825 42.0884355,30.0425902 42.2381178,29.8307301 C42.3692206,29.6451077 42.5198187,29.6259189 42.7158187,29.6267021 C43.9503047,29.6319235 45.1846598,29.6294434 46.4191458,29.6294434 L46.7909963,29.6294434 Z M12.8674262,43.436511 C17.9362112,38.3337231 22.9577626,33.2787114 27.9624355,28.2408 C28.6214822,28.8814713 29.2620804,29.4952522 29.8928654,30.1190844 C30.5318935,30.7511403 31.1616318,31.3929865 31.7954262,32.0306555 C32.4217626,32.6610145 33.0480991,33.2913734 33.6741738,33.9218629 C34.3002486,34.5523524 34.9260617,35.183103 35.5522673,35.8137231 C36.1856692,36.4516531 36.8189402,37.0895832 37.4527346,37.7273828 C38.079071,38.3577417 38.7056692,38.9878396 39.3320056,39.6180681 C39.9655383,40.2556065 40.5967159,40.8961473 41.2333888,41.5309445 C41.8584168,42.154124 42.4643421,42.7974061 43.1137065,43.4067487 C43.1791271,43.3485296 43.2207346,43.317462 43.2552766,43.279476 C43.2885103,43.2427953 43.314286,43.1994573 43.3541925,43.14411 C38.318772,38.0742172 33.2915944,33.0129399 28.2570897,27.9439608 C33.310828,22.8559235 38.3326411,17.7998676 43.372772,12.7252755 C43.2682299,12.6289399 43.1895944,12.5567534 43.1011458,12.4755599 C38.0570897,17.5534154 33.0352766,22.6088186 27.9961925,27.6818443 C22.9480804,22.5999422 17.9258748,17.5440168 12.8959495,12.4803897 C12.8017439,12.5662825 12.7214075,12.6393828 12.6228841,12.7290611 C17.6664168,17.8066555 22.6887533,22.862842 27.7351645,27.9436998 C22.693071,33.020511 17.6653701,38.0825716 12.609015,43.1736112 C12.6989028,43.2652476 12.7696879,43.3370424 12.8674262,43.436511 L12.8674262,43.436511 Z M16.202043,28.9302918 L16.202043,29.5299748 C16.202043,30.3861613 16.1889589,31.2424783 16.2091084,32.0980121 C16.2163047,32.4037277 16.0946224,32.5839981 15.8262673,32.6599702 C15.4154262,32.7764084 15.0014449,32.9028979 14.5800056,32.9579841 C13.2770897,33.1279422 11.9706411,33.1288559 10.6717813,32.9089026 C10.344286,32.8534247 10.0221551,32.7544783 9.70525794,32.6514853 C9.45404299,32.5699002 9.3360243,32.3996811 9.34151963,32.1059748 C9.36009907,31.10411 9.34858505,30.1015925 9.34793084,29.0994667 C9.34793084,29.0479049 9.34308972,28.9963431 9.33942617,28.9231124 C8.68822991,28.7758676 8.16565047,28.4435226 7.8475757,27.8422732 C7.6191271,27.4107207 7.55645421,26.9501893 7.66073458,26.4750378 C7.78019252,25.9305716 8.08073458,25.5042406 8.54822991,25.1959142 C9.01834206,24.8857604 9.53908972,24.8297604 10.0969963,24.9066462 C10.4956692,23.4276718 11.4162673,22.5562126 12.9794262,22.6537231 C14.3300991,22.7380494 15.1201178,23.580138 15.4453888,24.906124 C16.1614822,24.8002592 16.8134636,24.9414993 17.3431084,25.4679515 C17.6987346,25.8215739 17.8864916,26.2540401 17.9369963,26.7483804 C18.038529,27.7426741 17.394529,28.5668793 16.202043,28.9302918 Z M37.3704486,29.28629 C37.8372897,29.2887702 38.2286355,29.6828587 38.2268037,30.1483506 C38.224972,30.613973 37.8299626,31.0050592 37.363514,31.0032317 C36.8966729,31.0015347 36.5046729,30.6071851 36.5071589,30.1416932 C36.5100374,29.6754182 36.9050467,29.2838098 37.3704486,29.28629 Z M37.3857832,26.6526844 C37.852886,26.6649548 38.2383439,27.0668755 38.2268299,27.5298872 C38.2150542,27.9966844 37.8128486,28.3809828 37.3482318,28.3687124 C36.8785121,28.3563114 36.4939701,27.955696 36.507185,27.4925538 C36.5207925,27.0245818 36.9222131,26.6406751 37.3857832,26.6526844 Z M35.9472897,29.4093725 C35.6255514,29.4048037 35.3679252,29.1503888 35.3649159,28.8340998 C35.361514,28.5102396 35.6403364,28.2353305 35.9666542,28.240552 C36.2974206,28.245904 36.5557009,28.5204214 36.543271,28.8535497 C36.5312336,29.1741464 36.2738692,29.4140718 35.9472897,29.4093725 Z M38.7938561,28.1319329 C38.9581925,28.3644177 39.0909963,28.533462 39.1994636,28.7167347 C39.2336131,28.7746928 39.2313888,28.8881287 39.1963234,28.9467394 C39.0872019,29.1296205 38.9543981,29.2984037 38.8204168,29.4866368 C38.6040056,29.3238583 38.4976318,29.1216578 38.3852393,28.9304224 C38.3514822,28.8733781 38.3624729,28.759159 38.398585,28.6981986 C38.5029963,28.5228886 38.630828,28.3614154 38.7938561,28.1319329 Z" id="Fill-1" fill="#FFFFFF"></path>
                        </g>
                    </g>
                </g>
            </g>
        </g>
    </g>
</svg>